<svg width="1440" height="1024" viewBox="0 0 1440 1024" fill="none" xmlns="http://www.w3.org/2000/svg">
<g opacity="0.5">
<g opacity="0.2">
<ellipse cx="229.192" cy="220.16" rx="229.192" ry="220.16" fill="#5398E9" fill-opacity="0.25"/>
<g clip-path="url(#clip0_10_344)">
<path d="M362.655 90.6543H329.727C325.252 90.6543 321.63 94.1331 321.63 98.4322V106.21H255.362C252.009 97.1764 243.105 90.6543 232.563 90.6543C222.02 90.6543 213.117 97.1764 209.763 106.21H143.495V98.4322C143.495 94.1331 139.874 90.6543 135.398 90.6543H102.471C97.9951 90.6543 94.3735 94.1331 94.3735 98.4322V129.544C94.3735 133.843 97.9951 137.322 102.471 137.322H135.398C139.874 137.322 143.495 133.843 143.495 129.544V121.662H176.749C148.649 138.525 130.12 168.143 127.905 201.316C118.19 204.371 111.107 213.058 111.107 223.398C111.107 236.265 122.004 246.732 135.398 246.732C148.793 246.732 159.69 236.265 159.69 223.398C159.69 213.473 153.179 205.035 144.068 201.668C146.83 164.684 173.695 133.512 211.064 124.618C215.106 132.125 223.174 137.322 232.563 137.322C241.952 137.322 250.02 132.125 254.061 124.618C291.43 133.511 318.295 164.683 321.058 201.667C311.947 205.035 305.436 213.473 305.436 223.398C305.436 236.265 316.332 246.732 329.727 246.732C343.122 246.732 354.018 236.265 354.018 223.398C354.018 213.058 346.935 204.371 337.22 201.316C335.005 168.143 316.477 138.629 288.376 121.766H321.63V129.544C321.63 133.843 325.252 137.322 329.727 137.322H362.655C367.131 137.322 370.752 133.843 370.752 129.544V98.4322C370.752 94.1331 367.131 90.6543 362.655 90.6543Z" fill="#5398E9"/>
<path d="M287.649 346.494C283.414 334.045 271.212 324.511 256.854 324.511H208.271C193.913 324.511 181.711 334.045 177.476 346.494C175.843 351.294 180.094 356.141 185.351 356.141H279.774C285.031 356.141 289.282 351.294 287.649 346.494Z" fill="#5398E9"/>
<path d="M304.075 250.195L240.659 158.82V232.608C250.064 235.83 256.853 244.383 256.853 254.51C256.853 267.376 245.957 277.843 232.562 277.843C219.168 277.843 208.271 267.376 208.271 254.51C208.271 244.383 215.061 235.83 224.465 232.608V158.82L161.049 250.195C158.906 253.279 159.333 257.388 162.061 260.009C176.926 274.288 186.428 292.683 190.094 312.414C195.719 310.222 201.837 308.955 208.271 308.955H256.853C263.288 308.955 269.405 310.222 275.03 312.413C278.697 292.681 288.199 274.288 303.063 260.009C305.791 257.388 306.218 253.279 304.075 250.195Z" fill="#5398E9"/>
<path d="M232.563 246.732C228.095 246.732 224.466 250.218 224.466 254.51C224.466 258.801 228.095 262.288 232.563 262.288C237.03 262.288 240.66 258.801 240.66 254.51C240.66 250.218 237.03 246.732 232.563 246.732Z" fill="#5398E9"/>
</g>
</g>
<g opacity="0.2">
<ellipse rx="54.819" ry="54.9286" transform="matrix(0.70372 -0.710478 0.738148 0.674639 215.867 842.24)" fill="#5398E9" fill-opacity="0.25"/>
<g clip-path="url(#clip1_10_344)">
<path d="M214.48 797.762L208.938 803.357C208.185 804.118 208.216 805.319 209.008 806.043L210.44 807.352L199.286 818.613C197.058 817.662 194.358 818.078 192.584 819.869C190.809 821.661 190.512 824.271 191.611 826.362L180.457 837.623L179.024 836.314C178.233 835.59 176.982 835.62 176.229 836.381L170.687 841.976C169.933 842.737 169.964 843.938 170.756 844.661L176.486 849.898C177.278 850.622 178.528 850.592 179.281 849.831L184.823 844.236C185.577 843.475 185.546 842.274 184.754 841.55L183.302 840.224L188.9 834.573C187.275 842.186 189.611 850.32 195.348 856.28C194.275 858.445 194.683 861.111 196.587 862.852C198.956 865.017 202.718 864.927 204.973 862.651C207.227 860.375 207.134 856.762 204.764 854.596C202.936 852.925 200.287 852.611 198.133 853.593C191.787 846.898 190.568 837.086 195.22 829.239C197.282 829.816 199.598 829.32 201.178 827.724C202.758 826.129 203.159 823.883 202.457 821.932C210.385 817.079 220.647 817.761 227.923 823.516C227.01 825.631 227.468 828.158 229.296 829.828C231.666 831.994 235.427 831.904 237.682 829.628C239.936 827.352 239.843 823.738 237.473 821.573C235.569 819.832 232.777 819.574 230.579 820.711C224.097 815.503 215.543 813.684 207.708 815.621L213.305 809.97L214.737 811.279C215.529 812.003 216.779 811.973 217.533 811.212L223.075 805.617C223.828 804.856 223.797 803.655 223.005 802.932L217.276 797.695C216.484 796.971 215.234 797.001 214.48 797.762Z" fill="#5398E9"/>
<path d="M248.972 853.57C245.967 852.195 242.157 852.664 239.74 855.104L231.563 863.359C229.146 865.799 228.848 869.478 230.428 872.293C231.037 873.378 232.645 873.472 233.53 872.578L249.423 856.533C250.308 855.639 250.131 854.101 248.972 853.57Z" fill="#5398E9"/>
<path d="M234.002 834.57L206.5 829.967L220.089 842.387C222.265 841.331 224.983 841.617 226.848 843.321C229.218 845.487 229.311 849.1 227.057 851.376C224.802 853.653 221.041 853.743 218.671 851.577C216.806 849.872 216.374 847.279 217.363 845.139L203.774 832.719L209.928 858.875C210.135 859.759 210.964 860.378 211.906 860.355C217.037 860.233 222.024 861.714 226.275 864.412C226.819 863.087 227.615 861.834 228.698 860.741L236.875 852.485C237.958 851.392 239.221 850.565 240.571 849.978C237.555 846.034 235.767 841.323 235.639 836.394C235.616 835.489 234.931 834.725 234.002 834.57Z" fill="#5398E9"/>
<path d="M221.327 846.14C220.575 846.899 220.606 848.102 221.397 848.825C222.187 849.547 223.44 849.517 224.192 848.758C224.944 847.999 224.913 846.795 224.123 846.073C223.332 845.351 222.079 845.38 221.327 846.14Z" fill="#5398E9"/>
</g>
</g>
<g opacity="0.2">
<g clip-path="url(#clip2_10_344)">
<path d="M1322.93 752.853L1249.25 712.031C1236.8 705.138 1221.34 705.138 1208.9 712.031L1135.21 752.853C1122.74 759.759 1115 772.639 1115 786.466V868.047C1115 881.873 1122.74 894.753 1135.21 901.659L1208.9 942.481C1221.34 949.376 1236.8 949.374 1249.25 942.481L1322.93 901.659C1335.4 894.753 1343.15 881.873 1343.15 868.047V786.466C1343.15 772.64 1335.4 759.76 1322.93 752.853ZM1323.56 868.047C1323.56 875.169 1319.57 881.803 1313.15 885.36L1239.46 926.182C1233.05 929.734 1225.09 929.734 1218.68 926.182L1144.99 885.36C1138.57 881.803 1134.58 875.169 1134.58 868.047V786.466C1134.58 779.344 1138.57 772.71 1144.99 769.153L1218.68 728.331C1225.09 724.779 1233.06 724.78 1239.46 728.331L1313.15 769.152C1319.57 772.71 1323.56 779.344 1323.56 786.466V868.047Z" fill="#2BBC5D"/>
<path d="M1219.77 820.075L1183.4 790.511C1179.27 787.155 1173.09 787.649 1169.6 791.615C1166.11 795.582 1166.62 801.517 1170.75 804.873L1198.28 827.257L1170.75 849.639C1166.62 852.995 1166.11 858.931 1169.6 862.897C1173.1 866.872 1179.28 867.35 1183.4 864.002L1219.77 834.438C1224.39 830.677 1224.38 823.825 1219.77 820.075Z" fill="#2BBC5D"/>
<path d="M1281.07 847.413H1237.01C1231.6 847.413 1227.22 851.625 1227.22 856.82C1227.22 862.016 1231.6 866.228 1237.01 866.228H1281.07C1286.48 866.228 1290.86 862.016 1290.86 856.82C1290.86 851.625 1286.48 847.413 1281.07 847.413Z" fill="#2BBC5D"/>
</g>
<ellipse cx="1232.13" cy="824.32" rx="207.872" ry="199.68" fill="#2BBC5D" fill-opacity="0.15"/>
</g>
<g opacity="0.2">
<ellipse cx="1232.13" cy="195.413" rx="120.814" ry="116.053" fill="#BE49E8" fill-opacity="0.25"/>
<g clip-path="url(#clip3_10_344)">
<path d="M1297.64 127.147C1235.94 127.147 1185.18 172.746 1179.81 230.696C1190.06 216.806 1202.62 203.441 1218.3 188.076C1219.46 186.921 1221.39 186.898 1222.59 188.035C1223.79 189.161 1223.8 191.009 1222.63 192.158C1220.27 194.467 1217.87 196.864 1215.46 199.29C1214.09 200.671 1212.74 202.048 1211.41 203.4C1211.17 203.651 1210.93 203.902 1210.69 204.158C1191.31 224.089 1177.46 241.436 1167.4 262.982C1166.71 264.452 1167.4 266.178 1168.92 266.837C1169.33 267.012 1169.75 267.093 1170.17 267.093C1171.33 267.093 1172.44 266.452 1172.94 265.373C1176.52 257.705 1180.68 250.591 1185.35 243.67C1227.75 242.626 1266.34 219.972 1286.56 183.924C1287.07 183.02 1287.04 181.93 1286.5 181.044C1285.95 180.169 1284.96 179.627 1283.89 179.627H1272.65L1292.81 168.559C1293.44 168.209 1293.93 167.644 1294.17 166.979C1298.49 154.909 1300.68 142.488 1300.68 130.062C1300.68 128.453 1299.32 127.147 1297.64 127.147Z" fill="#BE49E8"/>
</g>
</g>
<g opacity="0.2">
<ellipse rx="89.6501" ry="87.7514" transform="matrix(0.789167 -0.614179 0.644727 0.764413 418.853 662.331)" fill="#BE49E8" fill-opacity="0.25"/>
<g clip-path="url(#clip4_10_344)">
<path d="M423.938 593.015C387.804 621.137 380.312 670.624 405.412 706.57C404.645 693.869 405.485 680.42 407.177 664.393C407.296 663.195 408.415 662.301 409.67 662.413C410.919 662.519 411.831 663.579 411.705 664.777C411.447 667.188 411.212 669.666 410.983 672.166C410.85 673.593 410.731 675.003 410.616 676.388C410.596 676.643 410.576 676.899 410.559 677.158C408.928 697.508 409.273 713.849 413.886 730.886C414.201 732.048 415.444 732.733 416.657 732.42C416.981 732.335 417.266 732.192 417.511 732.001C418.19 731.472 418.528 730.595 418.297 729.742C416.657 723.678 415.623 717.671 414.986 711.54C439.304 691.615 450.858 660.934 445.13 630.881C444.984 630.129 444.438 629.51 443.686 629.246C442.936 628.992 442.092 629.13 441.467 629.617L434.884 634.74L441.294 619.156C441.496 618.663 441.509 618.112 441.323 617.62C437.97 608.674 433.195 600.499 427.137 593.317C426.352 592.386 424.919 592.251 423.938 593.015Z" fill="#BE49E8"/>
</g>
</g>
<g opacity="0.2">
<g clip-path="url(#clip5_10_344)">
<path d="M702.933 130.711L680.813 111.778C677.077 108.581 671.805 107.53 667.053 109.034L638.916 117.944C634.155 119.451 630.565 123.317 629.545 128.032L623.533 155.853C622.514 160.568 624.205 165.487 627.948 168.69L650.068 187.622C653.804 190.82 659.077 191.871 663.828 190.366L691.965 181.457C696.726 179.949 700.316 176.084 701.335 171.369L707.348 143.548C708.367 138.833 706.675 133.914 702.933 130.711ZM694.657 170.037C694.132 172.466 692.283 174.457 689.83 175.233L661.693 184.143C659.245 184.918 656.53 184.376 654.605 182.729L632.485 163.797C630.558 162.147 629.686 159.613 630.211 157.184L636.224 129.364C636.749 126.935 638.598 124.944 641.05 124.168L669.188 115.258C671.636 114.483 674.352 115.025 676.275 116.672L698.396 135.604C700.323 137.254 701.195 139.787 700.67 142.216L694.657 170.037Z" fill="#2BBC5D"/>
<path d="M662.797 146.618L652.574 134.063C651.414 132.638 649.27 132.386 647.786 133.501C646.303 134.616 646.041 136.676 647.201 138.101L654.941 147.606L643.902 153.367C642.247 154.231 641.634 156.22 642.533 157.81C643.434 159.404 645.506 159.987 647.157 159.125L661.738 151.516C663.593 150.548 664.094 148.211 662.797 146.618Z" fill="#2BBC5D"/>
<path d="M681.687 160.11L666.661 157.114C664.817 156.746 663.012 157.884 662.629 159.656C662.246 161.428 663.431 163.162 665.275 163.53L680.3 166.527C682.144 166.894 683.95 165.756 684.333 163.984C684.716 162.213 683.531 160.478 681.687 160.11Z" fill="#2BBC5D"/>
</g>
<ellipse rx="72.2841" ry="69.6669" transform="matrix(0.980688 0.195577 -0.211249 0.977432 666.699 148.907)" fill="#2BBC5D" fill-opacity="0.15"/>
</g>
<g opacity="0.2">
<ellipse rx="57.2847" ry="55.939" transform="matrix(0.899163 -0.437613 0.466526 0.884508 1057.13 478.72)" fill="#5398E9" fill-opacity="0.25"/>
<g clip-path="url(#clip6_10_344)">
<path d="M1071.77 435.017L1064.37 438.619C1063.36 439.108 1062.96 440.286 1063.47 441.252L1064.39 443L1049.5 450.249C1047.68 448.585 1044.9 448.093 1042.53 449.246C1040.16 450.399 1038.93 452.839 1039.25 455.236L1024.36 462.484L1023.44 460.736C1022.93 459.77 1021.7 459.384 1020.7 459.874L1013.3 463.476C1012.29 463.965 1011.89 465.143 1012.4 466.109L1016.09 473.101C1016.6 474.067 1017.82 474.453 1018.83 473.964L1026.23 470.362C1027.23 469.872 1027.63 468.695 1027.13 467.728L1026.19 465.957L1033.66 462.32C1029.35 469.183 1028.69 477.866 1032.13 485.564C1030.31 487.313 1029.75 490.04 1030.97 492.363C1032.5 495.255 1036.19 496.416 1039.2 494.951C1042.21 493.486 1043.41 489.941 1041.89 487.05C1040.71 484.819 1038.25 483.635 1035.8 483.875C1032.04 475.261 1034.38 465.317 1041.73 459.231C1043.52 460.476 1045.95 460.761 1048.06 459.734C1050.17 458.707 1051.37 456.657 1051.39 454.528C1060.84 452.439 1070.57 456.506 1075.58 464.516C1073.93 466.269 1073.47 468.878 1074.64 471.108C1076.17 474 1079.86 475.16 1082.87 473.695C1085.88 472.23 1087.09 468.686 1085.56 465.794C1084.34 463.471 1081.72 462.293 1079.17 462.669C1074.74 455.456 1067.08 450.85 1058.76 450.134L1066.24 446.496L1067.16 448.244C1067.67 449.211 1068.89 449.596 1069.9 449.107L1077.3 445.505C1078.31 445.016 1078.71 443.838 1078.2 442.871L1074.51 435.879C1074 434.913 1072.77 434.528 1071.77 435.017Z" fill="#5398E9"/>
<path d="M1085.24 500.718C1082.81 498.384 1078.94 497.576 1075.71 499.146L1064.79 504.46C1061.57 506.03 1059.95 509.508 1060.48 512.769C1060.68 514.026 1062.21 514.651 1063.39 514.075L1084.61 503.748C1085.79 503.173 1086.17 501.618 1085.24 500.718Z" fill="#5398E9"/>
<path d="M1077.52 477.279L1052.43 463.68L1061.18 480.263C1063.67 479.959 1066.21 481.138 1067.41 483.414C1068.94 486.306 1067.73 489.85 1064.72 491.315C1061.71 492.78 1058.02 491.62 1056.5 488.728C1055.3 486.452 1055.81 483.787 1057.54 482.035L1048.79 465.451L1045.37 492.923C1045.26 493.851 1045.84 494.728 1046.76 495.018C1051.8 496.601 1056.11 499.696 1059.27 503.729C1060.28 502.622 1061.5 501.668 1062.95 500.964L1073.87 495.65C1075.31 494.946 1076.84 494.562 1078.36 494.439C1076.85 489.603 1076.8 484.431 1078.45 479.596C1078.75 478.708 1078.36 477.738 1077.52 477.279Z" fill="#5398E9"/>
<path d="M1061.03 484.323C1060.03 484.812 1059.63 485.992 1060.14 486.957C1060.64 487.921 1061.87 488.308 1062.88 487.819C1063.88 487.33 1064.28 486.15 1063.77 485.185C1063.27 484.221 1062.04 483.834 1061.03 484.323Z" fill="#5398E9"/>
</g>
</g>
</g>
<defs>
<clipPath id="clip0_10_344">
<rect width="276.379" height="265.487" fill="white" transform="translate(94.3735 90.6543)"/>
</clipPath>
<clipPath id="clip1_10_344">
<rect width="66.1052" height="66.2374" fill="white" transform="matrix(0.70372 -0.710478 0.738148 0.674639 169.324 843.352)"/>
</clipPath>
<clipPath id="clip2_10_344">
<rect width="250.669" height="240.791" fill="white" transform="translate(1103.74 706.861)"/>
</clipPath>
<clipPath id="clip3_10_344">
<rect width="145.688" height="139.947" fill="white" transform="translate(1161.06 127.147)"/>
</clipPath>
<clipPath id="clip4_10_344">
<rect width="108.108" height="105.818" fill="white" transform="matrix(0.789167 -0.614179 0.644727 0.764413 343.956 655.262)"/>
</clipPath>
<clipPath id="clip5_10_344">
<rect width="87.1662" height="84.0101" fill="white" transform="matrix(0.980688 0.195577 -0.211249 0.977432 631.573 100.119)"/>
</clipPath>
<clipPath id="clip6_10_344">
<rect width="69.0786" height="67.4558" fill="white" transform="matrix(0.899163 -0.437613 0.466526 0.884508 1011.48 464.361)"/>
</clipPath>
</defs>
</svg>
