<svg width="136" height="160" viewBox="0 0 136 160" fill="none" xmlns="http://www.w3.org/2000/svg">
<path fill-rule="evenodd" clip-rule="evenodd" d="M3.32045 158.488C0.816172 156.736 -0.00453078 153.4 1.40061 150.686L48.7673 59.1821C50.3161 56.1901 53.9971 55.0201 56.9891 56.5689C59.981 58.1177 61.151 61.7987 59.6022 64.7907L33.2076 115.78L117.879 23.703L53.1173 12.1932C49.8002 11.6036 47.5891 8.43668 48.1786 5.11958C48.7681 1.80249 51.9351 -0.408649 55.2522 0.180892L130.967 13.6373C133.16 14.0271 134.966 15.5812 135.679 17.6916C136.392 19.802 135.898 22.133 134.39 23.7726L11.3084 157.619C9.23943 159.869 5.82474 160.241 3.32045 158.488Z" fill="white"/>
</svg>
